# Blender v2.76 (sub 0) OBJ File: ''
# www.blender.org
o Icosphere
v 0.000000 -1.000000 -0.000000
v 0.203181 -0.967950 0.147618
v -0.077607 -0.967950 0.238853
v 0.723607 -0.447220 0.525725
v 0.609547 -0.657519 0.442856
v 0.812729 -0.502301 0.295238
v -0.251147 -0.967949 -0.000000
v -0.077607 -0.967950 -0.238853
v 0.203181 -0.967950 -0.147618
v 0.860698 -0.251151 0.442858
v -0.276388 -0.447220 0.850649
v -0.029639 -0.502302 0.864184
v -0.155215 -0.251152 0.955422
v -0.894426 -0.447216 -0.000000
v -0.831051 -0.502299 0.238853
v -0.956626 -0.251149 0.147618
v -0.276388 -0.447220 -0.850649
v -0.483971 -0.502302 -0.716565
v -0.436007 -0.251152 -0.864188
v 0.723607 -0.447220 -0.525725
v 0.531941 -0.502302 -0.681712
v 0.687159 -0.251152 -0.681715
v 0.687159 -0.251152 0.681715
v -0.436007 -0.251152 0.864188
v -0.956626 -0.251149 -0.147618
v -0.155215 -0.251152 -0.955422
v 0.860698 -0.251151 -0.442858
v 0.276388 0.447220 0.850649
v 0.483971 0.502302 0.716565
v 0.232822 0.657519 0.716563
v -0.723607 0.447220 0.525725
v -0.531941 0.502302 0.681712
v -0.609547 0.657519 0.442856
v -0.723607 0.447220 -0.525725
v -0.812729 0.502301 -0.295238
v -0.609547 0.657519 -0.442856
v 0.276388 0.447220 -0.850649
v 0.029639 0.502302 -0.864184
v 0.232822 0.657519 -0.716563
v 0.894426 0.447216 0.000000
v 0.831051 0.502299 -0.238853
v 0.753442 0.657515 0.000000
v 0.251147 0.967949 0.000000
v 0.077607 0.967950 -0.238853
v 0.000000 1.000000 0.000000
v 0.525730 0.850652 0.000000
v 0.361800 0.894429 -0.262863
v 0.638194 0.723610 -0.262864
v 0.162456 0.850654 -0.499995
v 0.447209 0.723612 -0.525728
v 0.688189 0.525736 -0.499997
v 0.483971 0.502302 -0.716565
v -0.203181 0.967950 -0.147618
v -0.138197 0.894430 -0.425319
v -0.052790 0.723612 -0.688185
v -0.425323 0.850654 -0.309011
v -0.361804 0.723612 -0.587778
v -0.262869 0.525738 -0.809012
v -0.531941 0.502302 -0.681712
v -0.203181 0.967950 0.147618
v -0.447210 0.894429 0.000000
v -0.670817 0.723611 -0.162457
v -0.425323 0.850654 0.309011
v -0.670817 0.723611 0.162457
v -0.850648 0.525736 0.000000
v -0.812729 0.502301 0.295238
v 0.077607 0.967950 0.238853
v -0.138197 0.894430 0.425319
v -0.361804 0.723612 0.587778
v 0.162456 0.850654 0.499995
v -0.052790 0.723612 0.688185
v -0.262869 0.525738 0.809012
v 0.029639 0.502302 0.864184
v 0.361800 0.894429 0.262863
v 0.447209 0.723612 0.525728
v 0.638194 0.723610 0.262864
v 0.688189 0.525736 0.499997
v 0.831051 0.502299 0.238853
v 0.956626 0.251149 -0.147618
v 0.951058 0.000000 -0.309013
v 0.861804 0.276396 -0.425322
v 0.809019 0.000000 -0.587782
v 0.670821 0.276397 -0.688189
v 0.587786 0.000000 -0.809017
v 0.436007 0.251152 -0.864188
v 0.155215 0.251152 -0.955422
v 0.000000 0.000000 -1.000000
v -0.138199 0.276397 -0.951055
v -0.309016 0.000000 -0.951057
v -0.447215 0.276397 -0.850649
v -0.587786 0.000000 -0.809017
v -0.687159 0.251152 -0.681715
v -0.860698 0.251151 -0.442858
v -0.951058 0.000000 -0.309013
v -0.947213 0.276396 -0.162458
v -1.000000 0.000001 0.000000
v -0.947213 0.276397 0.162458
v -0.951058 -0.000000 0.309013
v -0.860698 0.251151 0.442858
v -0.687159 0.251152 0.681715
v -0.587786 -0.000000 0.809017
v -0.447216 0.276397 0.850648
v -0.309017 -0.000001 0.951056
v -0.138199 0.276397 0.951055
v 0.000000 -0.000000 1.000000
v 0.155215 0.251152 0.955422
v 0.436007 0.251152 0.864188
v 0.587786 -0.000000 0.809017
v 0.670820 0.276396 0.688190
v 0.809019 -0.000002 0.587783
v 0.861804 0.276394 0.425323
v 0.951058 -0.000000 0.309013
v 0.956626 0.251149 0.147618
v 0.309017 0.000000 -0.951056
v 0.447216 -0.276398 -0.850648
v 0.138199 -0.276398 -0.951055
v 0.262869 -0.525738 -0.809012
v -0.029639 -0.502302 -0.864184
v -0.809018 0.000000 -0.587783
v -0.670819 -0.276397 -0.688191
v -0.861803 -0.276396 -0.425324
v -0.688189 -0.525736 -0.499997
v -0.831051 -0.502299 -0.238853
v -0.809018 -0.000000 0.587783
v -0.861803 -0.276396 0.425324
v -0.670819 -0.276397 0.688191
v -0.688189 -0.525736 0.499997
v -0.483971 -0.502302 0.716565
v 0.309017 -0.000000 0.951056
v 0.138199 -0.276398 0.951055
v 0.447216 -0.276398 0.850648
v 0.262869 -0.525738 0.809012
v 0.531941 -0.502302 0.681712
v 1.000000 0.000000 0.000000
v 0.947213 -0.276396 0.162458
v 0.947213 -0.276396 -0.162458
v 0.850648 -0.525736 -0.000000
v 0.812729 -0.502301 -0.295238
v 0.609547 -0.657519 -0.442856
v 0.425323 -0.850654 -0.309011
v 0.361803 -0.723612 -0.587779
v 0.138197 -0.894429 -0.425321
v 0.052789 -0.723611 -0.688186
v -0.162456 -0.850654 -0.499995
v -0.232822 -0.657519 -0.716563
v -0.447211 -0.723612 -0.525727
v -0.361801 -0.894429 -0.262863
v -0.638195 -0.723609 -0.262863
v -0.525730 -0.850652 -0.000000
v -0.753442 -0.657515 -0.000000
v -0.638195 -0.723609 0.262864
v -0.361801 -0.894428 0.262864
v -0.447211 -0.723610 0.525729
v -0.162456 -0.850654 0.499995
v -0.232822 -0.657519 0.716563
v 0.670817 -0.723611 -0.162457
v 0.670818 -0.723610 0.162458
v 0.447211 -0.894428 0.000001
v 0.425323 -0.850654 0.309011
v 0.052790 -0.723612 0.688185
v 0.138199 -0.894429 0.425321
v 0.361805 -0.723611 0.587779
vn -0.000000 -1.000000 0.000000
vn 0.211000 -0.965400 0.153300
vn -0.080600 -0.965400 0.248000
vn 0.723600 -0.447200 0.525700
vn 0.604200 -0.665000 0.439000
vn 0.815200 -0.503800 0.285700
vn -0.260800 -0.965400 0.000000
vn -0.080600 -0.965400 -0.248000
vn 0.211000 -0.965400 -0.153300
vn 0.865000 -0.243100 0.439000
vn -0.276400 -0.447200 0.850600
vn -0.019800 -0.503800 0.863600
vn -0.150200 -0.243100 0.958300
vn -0.894400 -0.447200 -0.000000
vn -0.827400 -0.503800 0.248000
vn -0.957800 -0.243100 0.153300
vn -0.276400 -0.447200 -0.850600
vn -0.491500 -0.503800 -0.710300
vn -0.441700 -0.243100 -0.863600
vn 0.723600 -0.447200 -0.525700
vn 0.523700 -0.503800 -0.687000
vn 0.684800 -0.243100 -0.687000
vn 0.684800 -0.243100 0.687000
vn -0.441700 -0.243100 0.863600
vn -0.957800 -0.243100 -0.153300
vn -0.150200 -0.243100 -0.958300
vn 0.865000 -0.243100 -0.439000
vn 0.276400 0.447200 0.850600
vn 0.491500 0.503800 0.710300
vn 0.230800 0.665000 0.710300
vn -0.723600 0.447200 0.525700
vn -0.523700 0.503800 0.687000
vn -0.604200 0.665000 0.439000
vn -0.723600 0.447200 -0.525700
vn -0.815200 0.503800 -0.285700
vn -0.604200 0.665000 -0.439000
vn 0.276400 0.447200 -0.850600
vn 0.019800 0.503800 -0.863600
vn 0.230800 0.665000 -0.710300
vn 0.894400 0.447200 -0.000000
vn 0.827400 0.503800 -0.248000
vn 0.746900 0.665000 -0.000000
vn 0.260800 0.965400 -0.000000
vn 0.080600 0.965400 -0.248000
vn 0.000000 1.000000 -0.000000
vn 0.525700 0.850700 -0.000000
vn 0.368200 0.890400 -0.267500
vn 0.631700 0.727500 -0.267500
vn 0.162500 0.850700 -0.500000
vn 0.449600 0.727600 -0.518200
vn 0.688200 0.525700 -0.500000
vn 0.491500 0.503800 -0.710300
vn -0.211000 0.965400 -0.153300
vn -0.140600 0.890400 -0.432900
vn -0.059200 0.727600 -0.683500
vn -0.425300 0.850700 -0.309000
vn -0.353900 0.727600 -0.587800
vn -0.262900 0.525700 -0.809000
vn -0.523700 0.503800 -0.687000
vn -0.211000 0.965400 0.153300
vn -0.455100 0.890400 0.000000
vn -0.668300 0.727600 -0.154900
vn -0.425300 0.850700 0.309000
vn -0.668300 0.727600 0.154900
vn -0.850600 0.525700 -0.000000
vn -0.815200 0.503800 0.285700
vn 0.080600 0.965400 0.248000
vn -0.140600 0.890400 0.432900
vn -0.353900 0.727600 0.587800
vn 0.162500 0.850700 0.500000
vn -0.059200 0.727600 0.683500
vn -0.262900 0.525700 0.809000
vn 0.019800 0.503800 0.863600
vn 0.368200 0.890400 0.267500
vn 0.449600 0.727600 0.518200
vn 0.631700 0.727500 0.267500
vn 0.688200 0.525700 0.500000
vn 0.827400 0.503800 0.248000
vn 0.957800 0.243100 -0.153300
vn 0.951100 0.000000 -0.309000
vn 0.859300 0.272400 -0.432900
vn 0.809000 0.008900 -0.587800
vn 0.677200 0.272400 -0.683500
vn 0.587800 -0.000000 -0.809000
vn 0.441700 0.243100 -0.863600
vn 0.150200 0.243100 -0.958300
vn 0.000000 0.000000 -1.000000
vn -0.146100 0.272400 -0.951000
vn -0.309000 0.008900 -0.951000
vn -0.440800 0.272400 -0.855300
vn -0.587800 0.000000 -0.809000
vn -0.684800 0.243100 -0.687000
vn -0.865000 0.243100 -0.439000
vn -0.951100 -0.000000 -0.309000
vn -0.949600 0.272400 -0.154900
vn -1.000000 0.008900 -0.000000
vn -0.949600 0.272400 0.154900
vn -0.951100 -0.000000 0.309000
vn -0.865000 0.243100 0.439000
vn -0.684800 0.243100 0.687000
vn -0.587800 0.000000 0.809000
vn -0.440800 0.272400 0.855300
vn -0.309000 0.008900 0.951000
vn -0.146100 0.272400 0.951000
vn -0.000000 0.000000 1.000000
vn 0.150200 0.243100 0.958300
vn 0.441700 0.243100 0.863600
vn 0.587800 0.000000 0.809000
vn 0.677200 0.272400 0.683500
vn 0.809000 0.008900 0.587800
vn 0.859300 0.272400 0.432900
vn 0.951100 0.000000 0.309000
vn 0.957800 0.243100 0.153300
vn 0.309000 -0.008900 -0.951000
vn 0.440800 -0.272400 -0.855300
vn 0.146100 -0.272400 -0.951000
vn 0.262900 -0.525700 -0.809000
vn -0.019800 -0.503800 -0.863600
vn -0.809000 -0.008900 -0.587800
vn -0.677200 -0.272400 -0.683500
vn -0.859300 -0.272400 -0.432900
vn -0.688200 -0.525700 -0.500000
vn -0.827400 -0.503800 -0.248000
vn -0.809000 -0.008900 0.587800
vn -0.859300 -0.272400 0.432900
vn -0.677200 -0.272400 0.683500
vn -0.688200 -0.525700 0.500000
vn -0.491500 -0.503800 0.710300
vn 0.309000 -0.008900 0.951000
vn 0.146100 -0.272400 0.951000
vn 0.440800 -0.272400 0.855300
vn 0.262900 -0.525700 0.809000
vn 0.523700 -0.503800 0.687000
vn 1.000000 -0.008900 0.000000
vn 0.949600 -0.272400 0.154900
vn 0.949600 -0.272400 -0.154900
vn 0.850600 -0.525700 -0.000000
vn 0.815200 -0.503800 -0.285700
vn 0.604200 -0.665000 -0.439000
vn 0.425300 -0.850700 -0.309000
vn 0.353900 -0.727600 -0.587800
vn 0.140600 -0.890400 -0.432900
vn 0.059200 -0.727600 -0.683500
vn -0.162500 -0.850700 -0.500000
vn -0.230800 -0.665000 -0.710300
vn -0.449600 -0.727600 -0.518200
vn -0.368200 -0.890400 -0.267500
vn -0.631700 -0.727500 -0.267500
vn -0.525700 -0.850700 0.000000
vn -0.746900 -0.665000 -0.000000
vn -0.631700 -0.727500 0.267500
vn -0.368200 -0.890400 0.267500
vn -0.449600 -0.727600 0.518200
vn -0.162500 -0.850700 0.500000
vn -0.230800 -0.665000 0.710300
vn 0.668300 -0.727600 -0.154900
vn 0.668300 -0.727500 0.154900
vn 0.455100 -0.890400 0.000000
vn 0.425300 -0.850700 0.309000
vn 0.059200 -0.727600 0.683500
vn 0.140600 -0.890400 0.432900
vn 0.353900 -0.727600 0.587800
s 1
f 1//1 2//2 3//3
f 4//4 5//5 6//6
f 1//1 3//3 7//7
f 1//1 7//7 8//8
f 1//1 8//8 9//9
f 4//4 6//6 10//10
f 11//11 12//12 13//13
f 14//14 15//15 16//16
f 17//17 18//18 19//19
f 20//20 21//21 22//22
f 4//4 10//10 23//23
f 11//11 13//13 24//24
f 14//14 16//16 25//25
f 17//17 19//19 26//26
f 20//20 22//22 27//27
f 28//28 29//29 30//30
f 31//31 32//32 33//33
f 34//34 35//35 36//36
f 37//37 38//38 39//39
f 40//40 41//41 42//42
f 43//43 44//44 45//45
f 46//46 47//47 43//43
f 42//42 48//48 46//46
f 43//43 47//47 44//44
f 47//47 49//49 44//44
f 46//46 48//48 47//47
f 48//48 50//50 47//47
f 47//47 50//50 49//49
f 50//50 39//39 49//49
f 42//42 41//41 48//48
f 41//41 51//51 48//48
f 48//48 51//51 50//50
f 51//51 52//52 50//50
f 50//50 52//52 39//39
f 52//52 37//37 39//39
f 44//44 53//53 45//45
f 49//49 54//54 44//44
f 39//39 55//55 49//49
f 44//44 54//54 53//53
f 54//54 56//56 53//53
f 49//49 55//55 54//54
f 55//55 57//57 54//54
f 54//54 57//57 56//56
f 57//57 36//36 56//56
f 39//39 38//38 55//55
f 38//38 58//58 55//55
f 55//55 58//58 57//57
f 58//58 59//59 57//57
f 57//57 59//59 36//36
f 59//59 34//34 36//36
f 53//53 60//60 45//45
f 56//56 61//61 53//53
f 36//36 62//62 56//56
f 53//53 61//61 60//60
f 61//61 63//63 60//60
f 56//56 62//62 61//61
f 62//62 64//64 61//61
f 61//61 64//64 63//63
f 64//64 33//33 63//63
f 36//36 35//35 62//62
f 35//35 65//65 62//62
f 62//62 65//65 64//64
f 65//65 66//66 64//64
f 64//64 66//66 33//33
f 66//66 31//31 33//33
f 60//60 67//67 45//45
f 63//63 68//68 60//60
f 33//33 69//69 63//63
f 60//60 68//68 67//67
f 68//68 70//70 67//67
f 63//63 69//69 68//68
f 69//69 71//71 68//68
f 68//68 71//71 70//70
f 71//71 30//30 70//70
f 33//33 32//32 69//69
f 32//32 72//72 69//69
f 69//69 72//72 71//71
f 72//72 73//73 71//71
f 71//71 73//73 30//30
f 73//73 28//28 30//30
f 67//67 43//43 45//45
f 70//70 74//74 67//67
f 30//30 75//75 70//70
f 67//67 74//74 43//43
f 74//74 46//46 43//43
f 70//70 75//75 74//74
f 75//75 76//76 74//74
f 74//74 76//76 46//46
f 76//76 42//42 46//46
f 30//30 29//29 75//75
f 29//29 77//77 75//75
f 75//75 77//77 76//76
f 77//77 78//78 76//76
f 76//76 78//78 42//42
f 78//78 40//40 42//42
f 79//79 41//41 40//40
f 80//80 81//81 79//79
f 27//27 82//82 80//80
f 79//79 81//81 41//41
f 81//81 51//51 41//41
f 80//80 82//82 81//81
f 82//82 83//83 81//81
f 81//81 83//83 51//51
f 83//83 52//52 51//51
f 27//27 22//22 82//82
f 22//22 84//84 82//82
f 82//82 84//84 83//83
f 84//84 85//85 83//83
f 83//83 85//85 52//52
f 85//85 37//37 52//52
f 86//86 38//38 37//37
f 87//87 88//88 86//86
f 26//26 89//89 87//87
f 86//86 88//88 38//38
f 88//88 58//58 38//38
f 87//87 89//89 88//88
f 89//89 90//90 88//88
f 88//88 90//90 58//58
f 90//90 59//59 58//58
f 26//26 19//19 89//89
f 19//19 91//91 89//89
f 89//89 91//91 90//90
f 91//91 92//92 90//90
f 90//90 92//92 59//59
f 92//92 34//34 59//59
f 93//93 35//35 34//34
f 94//94 95//95 93//93
f 25//25 96//96 94//94
f 93//93 95//95 35//35
f 95//95 65//65 35//35
f 94//94 96//96 95//95
f 96//96 97//97 95//95
f 95//95 97//97 65//65
f 97//97 66//66 65//65
f 25//25 16//16 96//96
f 16//16 98//98 96//96
f 96//96 98//98 97//97
f 98//98 99//99 97//97
f 97//97 99//99 66//66
f 99//99 31//31 66//66
f 100//100 32//32 31//31
f 101//101 102//102 100//100
f 24//24 103//103 101//101
f 100//100 102//102 32//32
f 102//102 72//72 32//32
f 101//101 103//103 102//102
f 103//103 104//104 102//102
f 102//102 104//104 72//72
f 104//104 73//73 72//72
f 24//24 13//13 103//103
f 13//13 105//105 103//103
f 103//103 105//105 104//104
f 105//105 106//106 104//104
f 104//104 106//106 73//73
f 106//106 28//28 73//73
f 107//107 29//29 28//28
f 108//108 109//109 107//107
f 23//23 110//110 108//108
f 107//107 109//109 29//29
f 109//109 77//77 29//29
f 108//108 110//110 109//109
f 110//110 111//111 109//109
f 109//109 111//111 77//77
f 111//111 78//78 77//77
f 23//23 10//10 110//110
f 10//10 112//112 110//110
f 110//110 112//112 111//111
f 112//112 113//113 111//111
f 111//111 113//113 78//78
f 113//113 40//40 78//78
f 85//85 86//86 37//37
f 84//84 114//114 85//85
f 22//22 115//115 84//84
f 85//85 114//114 86//86
f 114//114 87//87 86//86
f 84//84 115//115 114//114
f 115//115 116//116 114//114
f 114//114 116//116 87//87
f 116//116 26//26 87//87
f 22//22 21//21 115//115
f 21//21 117//117 115//115
f 115//115 117//117 116//116
f 117//117 118//118 116//116
f 116//116 118//118 26//26
f 118//118 17//17 26//26
f 92//92 93//93 34//34
f 91//91 119//119 92//92
f 19//19 120//120 91//91
f 92//92 119//119 93//93
f 119//119 94//94 93//93
f 91//91 120//120 119//119
f 120//120 121//121 119//119
f 119//119 121//121 94//94
f 121//121 25//25 94//94
f 19//19 18//18 120//120
f 18//18 122//122 120//120
f 120//120 122//122 121//121
f 122//122 123//123 121//121
f 121//121 123//123 25//25
f 123//123 14//14 25//25
f 99//99 100//100 31//31
f 98//98 124//124 99//99
f 16//16 125//125 98//98
f 99//99 124//124 100//100
f 124//124 101//101 100//100
f 98//98 125//125 124//124
f 125//125 126//126 124//124
f 124//124 126//126 101//101
f 126//126 24//24 101//101
f 16//16 15//15 125//125
f 15//15 127//127 125//125
f 125//125 127//127 126//126
f 127//127 128//128 126//126
f 126//126 128//128 24//24
f 128//128 11//11 24//24
f 106//106 107//107 28//28
f 105//105 129//129 106//106
f 13//13 130//130 105//105
f 106//106 129//129 107//107
f 129//129 108//108 107//107
f 105//105 130//130 129//129
f 130//130 131//131 129//129
f 129//129 131//131 108//108
f 131//131 23//23 108//108
f 13//13 12//12 130//130
f 12//12 132//132 130//130
f 130//130 132//132 131//131
f 132//132 133//133 131//131
f 131//131 133//133 23//23
f 133//133 4//4 23//23
f 113//113 79//79 40//40
f 112//112 134//134 113//113
f 10//10 135//135 112//112
f 113//113 134//134 79//79
f 134//134 80//80 79//79
f 112//112 135//135 134//134
f 135//135 136//136 134//134
f 134//134 136//136 80//80
f 136//136 27//27 80//80
f 10//10 6//6 135//135
f 6//6 137//137 135//135
f 135//135 137//137 136//136
f 137//137 138//138 136//136
f 136//136 138//138 27//27
f 138//138 20//20 27//27
f 139//139 21//21 20//20
f 140//140 141//141 139//139
f 9//9 142//142 140//140
f 139//139 141//141 21//21
f 141//141 117//117 21//21
f 140//140 142//142 141//141
f 142//142 143//143 141//141
f 141//141 143//143 117//117
f 143//143 118//118 117//117
f 9//9 8//8 142//142
f 8//8 144//144 142//142
f 142//142 144//144 143//143
f 144//144 145//145 143//143
f 143//143 145//145 118//118
f 145//145 17//17 118//118
f 145//145 18//18 17//17
f 144//144 146//146 145//145
f 8//8 147//147 144//144
f 145//145 146//146 18//18
f 146//146 122//122 18//18
f 144//144 147//147 146//146
f 147//147 148//148 146//146
f 146//146 148//148 122//122
f 148//148 123//123 122//122
f 8//8 7//7 147//147
f 7//7 149//149 147//147
f 147//147 149//149 148//148
f 149//149 150//150 148//148
f 148//148 150//150 123//123
f 150//150 14//14 123//123
f 150//150 15//15 14//14
f 149//149 151//151 150//150
f 7//7 152//152 149//149
f 150//150 151//151 15//15
f 151//151 127//127 15//15
f 149//149 152//152 151//151
f 152//152 153//153 151//151
f 151//151 153//153 127//127
f 153//153 128//128 127//127
f 7//7 3//3 152//152
f 3//3 154//154 152//152
f 152//152 154//154 153//153
f 154//154 155//155 153//153
f 153//153 155//155 128//128
f 155//155 11//11 128//128
f 138//138 139//139 20//20
f 137//137 156//156 138//138
f 6//6 157//157 137//137
f 138//138 156//156 139//139
f 156//156 140//140 139//139
f 137//137 157//157 156//156
f 157//157 158//158 156//156
f 156//156 158//158 140//140
f 158//158 9//9 140//140
f 6//6 5//5 157//157
f 5//5 159//159 157//157
f 157//157 159//159 158//158
f 159//159 2//2 158//158
f 158//158 2//2 9//9
f 2//2 1//1 9//9
f 155//155 12//12 11//11
f 154//154 160//160 155//155
f 3//3 161//161 154//154
f 155//155 160//160 12//12
f 160//160 132//132 12//12
f 154//154 161//161 160//160
f 161//161 162//162 160//160
f 160//160 162//162 132//132
f 162//162 133//133 132//132
f 3//3 2//2 161//161
f 2//2 159//159 161//161
f 161//161 159//159 162//162
f 159//159 5//5 162//162
f 162//162 5//5 133//133
f 5//5 4//4 133//133
